HIERARCHY
ROOT Hips
{
	OFFSET 0.000003 96.368652 -0.035689
	CHANNELS 6 Xposition Yposition Zposition Xrotation Yrotation Zrotation
	JOINT Spine
	{
		OFFSET 0.000010 9.226303 1.577100
		CHANNELS 6 Xposition Yposition Zposition Xrotation Yrotation Zrotation
		JOINT Spine1
		{
			OFFSET 0.000000 16.253998 -0.165600
			CHANNELS 6 Xposition Yposition Zposition Xrotation Yrotation Zrotation
			JOINT Spine2
			{
				OFFSET -0.000000 13.639587 -1.292299
				CHANNELS 6 Xposition Yposition Zposition Xrotation Yrotation Zrotation
				JOINT Neck
				{
					OFFSET 0.000000 13.877411 -4.354199
					CHANNELS 6 Xposition Yposition Zposition Xrotation Yrotation Zrotation
					JOINT Neck1
					{
						OFFSET 0.000000 4.339996 0.926899
						CHANNELS 6 Xposition Yposition Zposition Xrotation Yrotation Zrotation
						JOINT Head
						{
							OFFSET 0.000000 4.026611 0.858500
							CHANNELS 6 Xposition Yposition Zposition Xrotation Yrotation Zrotation
							JOINT HeadTop_End
							{
								OFFSET 0.000000 21.748810 0.000000
								CHANNELS 6 Xposition Yposition Zposition Xrotation Yrotation Zrotation
								End Site
								{
									OFFSET 0.000000 11.825378 0.000000
								}
							}
							JOINT L_Eye
							{
								OFFSET 3.005700 7.261795 7.955601
								CHANNELS 6 Xposition Yposition Zposition Xrotation Yrotation Zrotation
								End Site
								{
									OFFSET 0.000000 11.825378 0.000000
								}
							}
							JOINT R_Eye
							{
								OFFSET -3.005700 7.261795 7.955601
								CHANNELS 6 Xposition Yposition Zposition Xrotation Yrotation Zrotation
								End Site
								{
									OFFSET 0.000000 11.825378 0.000000
								}
							}
							JOINT Jaw
							{
								OFFSET 0.000000 2.030289 2.456200
								CHANNELS 6 Xposition Yposition Zposition Xrotation Yrotation Zrotation
								End Site
								{
									OFFSET 0.000000 11.825378 0.000000
								}
							}
						}
					}
				}
				JOINT L_Shoulder
				{
					OFFSET 6.144200 10.187012 -3.793198
					CHANNELS 6 Xposition Yposition Zposition Xrotation Yrotation Zrotation
					JOINT L_Arm
					{
						OFFSET 12.319103 -1.112991 -1.793500
						CHANNELS 3 Xrotation Yrotation Zrotation
						JOINT L_ForeArm
						{
							OFFSET 27.687006 -0.000015 -0.000000
							CHANNELS 3 Xrotation Yrotation Zrotation
							JOINT L_Hand
							{
								OFFSET 27.873787 0.000031 -0.000000
								CHANNELS 3 Xrotation Yrotation Zrotation
								JOINT L_HandThumb1
								{
									OFFSET 2.421021 -1.395554 2.392360
									CHANNELS 6 Xposition Yposition Zposition Xrotation Yrotation Zrotation
									JOINT L_HandThumb2
									{
										OFFSET 3.496521 -2.018692 2.018717
										CHANNELS 6 Xposition Yposition Zposition Xrotation Yrotation Zrotation
										JOINT L_HandThumb3
										{
											OFFSET 4.011398 -2.315994 2.315975
											CHANNELS 6 Xposition Yposition Zposition Xrotation Yrotation Zrotation
											JOINT L_HandThumb4
											{
												OFFSET 2.095787 -1.210007 1.209984
												CHANNELS 6 Xposition Yposition Zposition Xrotation Yrotation Zrotation
												End Site
												{
													OFFSET 1.877617 -1.197205 1.536803
												}
											}
										}
									}
								}
								JOINT L_HandIndex1
								{
									OFFSET 10.514771 -0.231369 2.264849
									CHANNELS 6 Xposition Yposition Zposition Xrotation Yrotation Zrotation
									JOINT L_HandIndex2
									{
										OFFSET 5.549301 0.000000 0.000000
										CHANNELS 3 Xrotation Yrotation Zrotation
										JOINT L_HandIndex3
										{
											OFFSET 3.391098 0.000000 0.000001
											CHANNELS 3 Xrotation Yrotation Zrotation
											JOINT L_HandIndex4
											{
												OFFSET 2.334351 0.000000 0.000011
												CHANNELS 6 Xposition Yposition Zposition Xrotation Yrotation Zrotation
												End Site
												{
													OFFSET 2.334351 0.000000 0.000101
												}
											}
										}
									}
								}
								JOINT L_HandMiddle1
								{
									OFFSET 10.490761 -0.000015 0.000002
									CHANNELS 6 Xposition Yposition Zposition Xrotation Yrotation Zrotation
									JOINT L_HandMiddle2
									{
										OFFSET 5.792099 0.000000 0.000000
										CHANNELS 3 Xrotation Yrotation Zrotation
										JOINT L_HandMiddle3
										{
											OFFSET 3.713196 0.000000 0.000000
											CHANNELS 3 Xrotation Yrotation Zrotation
											JOINT L_HandMiddle4
											{
												OFFSET 2.752045 -0.000031 0.000022
												CHANNELS 6 Xposition Yposition Zposition Xrotation Yrotation Zrotation
												End Site
												{
													OFFSET 2.752045 0.000031 -0.003599
												}
											}
										}
									}
								}
								JOINT L_HandRing1
								{
									OFFSET 10.240753 -0.046051 -2.314147
									CHANNELS 6 Xposition Yposition Zposition Xrotation Yrotation Zrotation
									JOINT L_HandRing2
									{
										OFFSET 5.445206 -0.000015 0.000676
										CHANNELS 3 Xrotation Yrotation Zrotation
										JOINT L_HandRing3
										{
											OFFSET 3.713196 0.000015 -0.000674
											CHANNELS 3 Xrotation Yrotation Zrotation
											JOINT L_HandRing4
											{
												OFFSET 2.280716 0.000000 -0.000046
												CHANNELS 3 Xrotation Yrotation Zrotation
												End Site
												{
													OFFSET 2.280716 -0.000061 0.003501
												}
											}
										}
									}
								}
								JOINT L_HandPinky1
								{
									OFFSET 9.820259 -0.209747 -4.418469
									CHANNELS 6 Xposition Yposition Zposition Xrotation Yrotation Zrotation
									JOINT L_HandPinky2
									{
										OFFSET 3.676300 0.000000 0.000000
										CHANNELS 3 Xrotation Yrotation Zrotation
										JOINT L_HandPinky3
										{
											OFFSET 2.811295 0.000000 0.000001
											CHANNELS 3 Xrotation Yrotation Zrotation
											JOINT L_HandPinky4
											{
												OFFSET 1.659546 0.000000 0.000000
												CHANNELS 3 Xrotation Yrotation Zrotation
												End Site
												{
													OFFSET 1.659546 0.000015 -0.001891
												}
											}
										}
									}
								}
							}
						}
					}
				}
				JOINT R_Shoulder
				{
					OFFSET -6.140200 10.187012 -3.793198
					CHANNELS 6 Xposition Yposition Zposition Xrotation Yrotation Zrotation
					JOINT R_Arm
					{
						OFFSET -12.323095 -1.113007 -1.793499
						CHANNELS 3 Xrotation Yrotation Zrotation
						JOINT R_ForeArm
						{
							OFFSET -27.687002 0.000015 -0.000002
							CHANNELS 3 Xrotation Yrotation Zrotation
							JOINT R_Hand
							{
								OFFSET -27.873795 -0.000015 0.000000
								CHANNELS 3 Xrotation Yrotation Zrotation
								JOINT R_HandPinky1
								{
									OFFSET -9.791023 -0.212921 -4.378341
									CHANNELS 6 Xposition Yposition Zposition Xrotation Yrotation Zrotation
									JOINT R_HandPinky2
									{
										OFFSET -3.652802 0.000000 0.000000
										CHANNELS 3 Xrotation Yrotation Zrotation
										JOINT R_HandPinky3
										{
											OFFSET -2.781998 0.000000 0.000000
											CHANNELS 3 Xrotation Yrotation Zrotation
											JOINT R_HandPinky4
											{
												OFFSET -1.612122 0.000198 0.000004
												CHANNELS 3 Xrotation Yrotation Zrotation
												End Site
												{
													OFFSET -1.612106 0.000320 -0.007100
												}
											}
										}
									}
								}
								JOINT R_HandRing1
								{
									OFFSET -10.391914 0.105164 -2.349891
									CHANNELS 6 Xposition Yposition Zposition Xrotation Yrotation Zrotation
									JOINT R_HandRing2
									{
										OFFSET -5.401306 0.000000 0.000000
										CHANNELS 3 Xrotation Yrotation Zrotation
										JOINT R_HandRing3
										{
											OFFSET -3.391602 0.000000 0.000000
											CHANNELS 3 Xrotation Yrotation Zrotation
											JOINT R_HandRing4
											{
												OFFSET -2.353172 0.000305 -0.000032
												CHANNELS 3 Xrotation Yrotation Zrotation
												End Site
												{
													OFFSET -2.353180 0.000275 0.001400
												}
											}
										}
									}
								}
								JOINT R_HandMiddle1
								{
									OFFSET -10.779236 0.000000 0.000001
									CHANNELS 6 Xposition Yposition Zposition Xrotation Yrotation Zrotation
									JOINT R_HandMiddle2
									{
										OFFSET -5.616806 0.000000 0.000000
										CHANNELS 3 Xrotation Yrotation Zrotation
										JOINT R_HandMiddle3
										{
											OFFSET -3.736397 0.000000 0.000000
											CHANNELS 3 Xrotation Yrotation Zrotation
											JOINT R_HandMiddle4
											{
												OFFSET -2.691521 0.000336 -0.000028
												CHANNELS 3 Xrotation Yrotation Zrotation
												End Site
												{
													OFFSET -2.691513 0.000214 0.009200
												}
											}
										}
									}
								}
								JOINT R_HandIndex1
								{
									OFFSET -10.577324 -0.175369 2.287349
									CHANNELS 6 Xposition Yposition Zposition Xrotation Yrotation Zrotation
									JOINT R_HandIndex2
									{
										OFFSET -5.376801 0.000000 0.000001
										CHANNELS 3 Xrotation Yrotation Zrotation
										JOINT R_HandIndex3
										{
											OFFSET -3.385498 0.000000 0.000001
											CHANNELS 3 Xrotation Yrotation Zrotation
											JOINT R_HandIndex4
											{
												OFFSET -2.363556 0.000305 0.000042
												CHANNELS 3 Xrotation Yrotation Zrotation
												End Site
												{
													OFFSET -2.363548 0.000381 -0.006501
												}
											}
										}
									}
								}
								JOINT R_HandThumb1
								{
									OFFSET -2.570442 -1.245102 2.319054
									CHANNELS 6 Xposition Yposition Zposition Xrotation Yrotation Zrotation
									JOINT R_HandThumb2
									{
										OFFSET -3.518791 -2.031555 2.031563
										CHANNELS 6 Xposition Yposition Zposition Xrotation Yrotation Zrotation
										JOINT R_HandThumb3
										{
											OFFSET -3.945267 -2.277756 2.277756
											CHANNELS 6 Xposition Yposition Zposition Xrotation Yrotation Zrotation
											JOINT R_HandThumb4
											{
												OFFSET -2.055496 -1.186386 1.186664
												CHANNELS 3 Xrotation Yrotation Zrotation
												End Site
												{
													OFFSET -1.840202 -1.174805 1.508071
												}
											}
										}
									}
								}
							}
						}
					}
				}
			}
		}
	}
	JOINT L_UpLeg
	{
		OFFSET 9.633796 -3.273308 -0.000000
		CHANNELS 6 Xposition Yposition Zposition Xrotation Yrotation Zrotation
		JOINT L_Leg
		{
			OFFSET -0.006490 -41.762173 -0.553830
			CHANNELS 3 Xrotation Yrotation Zrotation
			JOINT L_Foot
			{
				OFFSET 0.006493 -39.146984 -2.021915
				CHANNELS 3 Xrotation Yrotation Zrotation
				JOINT L_ToeBase
				{
					OFFSET -0.183300 -12.185708 8.282301
					CHANNELS 6 Xposition Yposition Zposition Xrotation Yrotation Zrotation
					JOINT L_Toe_End
					{
						OFFSET -0.094684 -0.116787 6.663326
						CHANNELS 3 Xrotation Yrotation Zrotation
						End Site
						{
							OFFSET -0.094684 -0.116787 6.663328
						}
					}
				}
			}
		}
	}
	JOINT R_UpLeg
	{
		OFFSET -9.633803 -3.273293 0.000000
		CHANNELS 6 Xposition Yposition Zposition Xrotation Yrotation Zrotation
		JOINT R_Leg
		{
			OFFSET -0.006491 -41.762146 -0.555884
			CHANNELS 3 Xrotation Yrotation Zrotation
			JOINT R_Foot
			{
				OFFSET 0.006493 -39.147087 -2.019920
				CHANNELS 3 Xrotation Yrotation Zrotation
				JOINT R_ToeBase
				{
					OFFSET -0.183299 -12.185700 8.282300
					CHANNELS 6 Xposition Yposition Zposition Xrotation Yrotation Zrotation
					JOINT R_Toe_End
					{
						OFFSET 0.094687 -0.116863 6.675869
						CHANNELS 3 Xrotation Yrotation Zrotation
						End Site
						{
							OFFSET 0.094687 -0.116863 6.675869
						}
					}
				}
			}
		}
	}
}
MOTION
Frames: 4
Frame Time: 0.033333
0.046436 83.706009 -0.037248 0.408932 -38.459474 2.825029 0.000010 9.226295 1.577100 7.807068 -7.226396 1.318515 0.000001 16.253977 -0.165602 9.937037 5.196216 4.214983 0.000000 13.639579 -1.292300 9.201937 5.858955 4.462338 0.000004 13.877433 -4.354205 -4.094849 0.325663 0.480661 0.000002 4.339981 0.926901 -0.000003 -0.000001 -0.000003 -0.000006 4.026601 0.858508 0.127076 19.933238 -16.814761 0.000002 21.748795 -0.000002 -0.000000 0.000000 -0.000001 3.005701 7.261780 7.955600 -0.000000 0.000000 -0.000001 -3.005700 7.261780 7.955600 -0.000000 0.000000 -0.000001 -0.000001 2.030258 2.456200 -0.000000 0.000000 -0.000001 6.144203 10.187005 -3.793204 -2.952319 -25.878612 -5.825433 -43.142142 7.979227 -55.355552 -85.130057 20.116797 -94.216039 -31.254884 -5.978387 11.417244 2.421016 -1.395577 2.392359 0.699333 9.503621 -2.418276 3.496504 -2.018686 2.018726 5.975150 12.647547 1.348415 4.011397 -2.316002 2.315988 -23.873543 -17.664339 1.604719 2.095789 -1.209989 1.209982 0.000003 0.000001 0.000006 10.514762 -0.231391 2.264847 9.479738 -1.289617 -20.785565 0.709570 2.796653 -28.467069 0.714080 2.804989 -28.559717 2.334352 0.000002 0.000011 0.000003 -0.000001 -0.000000 10.490767 -0.000036 0.000004 10.058213 -1.800418 -20.644732 1.774409 4.200797 -45.782034 1.632368 4.058103 -43.809475 2.752048 -0.000042 0.000022 -0.000000 0.000002 0.000002 10.240761 -0.046046 -2.314145 1.256444 -0.066879 -17.945579 3.744567 5.453191 -68.964229 5.298032 9.647986 -33.747610 -0.000002 -0.000000 0.000000 9.820258 -0.209765 -4.418465 -7.938253 1.609121 -6.495674 2.210747 4.583968 -51.475219 0.883931 3.096303 -31.858051 0.000000 -0.000002 -0.000002 -6.140203 10.187015 -3.793201 -0.175465 -10.857790 -0.290253 -5.035519 64.273767 36.283228 44.617999 126.410354 -56.523651 -4.354463 -4.222601 -8.957847 -9.791014 -0.212917 -4.378339 -17.635712 -10.496857 3.325315 4.994428 -4.645738 94.147915 3.647989 -4.547220 77.470676 -0.000003 -0.000000 0.000000 -10.391915 0.105184 -2.349901 -12.155613 -12.624068 9.228217 6.567917 -4.249048 114.232291 3.754926 -4.569724 78.826920 -0.000000 0.000001 -0.000002 -10.779234 0.000008 0.000002 3.764104 -12.080562 1.143658 5.715113 -4.536478 103.133480 3.160410 -4.411120 71.242070 0.000000 0.000000 -0.000000 -10.577325 -0.175348 2.287348 0.357657 -5.832725 5.175784 0.094410 -0.933785 11.539970 0.778277 -2.579720 33.567262 0.000000 -0.000000 0.000002 -2.570427 -1.245108 2.319048 13.942825 -4.273827 -5.299951 -3.518823 -2.031564 2.031540 7.113131 -20.767607 -2.619654 -3.945263 -2.277738 2.277751 -3.460503 -24.899368 -18.653803 -0.000002 0.000005 0.000002 9.633796 -3.273319 -0.000005 -34.912389 8.793036 3.527330 84.146544 -4.425421 -1.830442 -15.346545 -0.747860 -5.440760 -0.183301 -12.185709 8.282300 1.724213 0.138643 -0.494379 -0.000003 -0.000002 0.000001 -9.633805 -3.273301 0.000003 -38.263304 -1.352533 2.425799 63.799417 3.451061 -3.686199 -25.127728 3.077756 -3.484183 -0.183300 -12.185699 8.282301 -1.125741 0.904999 0.982065 -0.000000 -0.000001 -0.000000 
0.191956 82.694931 -1.108398 0.315734 -36.616296 2.960824 0.000011 9.226307 1.577102 7.810787 -7.637698 1.060246 0.000002 16.253984 -0.165601 9.922602 5.185532 4.191869 0.000001 13.639584 -1.292297 9.187487 5.848167 4.438938 -0.000003 13.877401 -4.354202 -3.715611 0.030816 0.479100 -0.000000 4.339996 0.926905 0.000000 0.000000 -0.000001 -0.000002 4.026611 0.858505 -0.157781 19.124497 -16.484313 -0.000001 21.748810 -0.000001 0.000000 0.000001 -0.000000 3.005698 7.261795 7.955603 0.000000 0.000001 -0.000000 -3.005702 7.261795 7.955604 0.000000 0.000001 -0.000000 -0.000001 2.030289 2.456204 0.000000 0.000001 -0.000000 6.144195 10.186995 -3.793207 -2.328157 -27.029517 -5.791973 -44.194637 6.519726 -54.349752 -85.387548 20.469232 -93.368010 -31.323709 -6.044289 11.029186 2.421020 -1.395563 2.392367 0.699332 9.503619 -2.418278 3.496518 -2.018696 2.018721 5.975146 12.647538 1.348418 4.011405 -2.315980 2.315988 -23.873536 -17.664343 1.604728 2.095777 -1.209991 1.209991 0.000002 0.000000 0.000007 10.514770 -0.231391 2.264855 9.479739 -1.289624 -20.785565 0.709570 2.796651 -28.467069 0.714077 2.804994 -28.559717 2.334342 0.000014 0.000013 0.000003 -0.000001 0.000000 10.490775 -0.000034 0.000009 10.058214 -1.800422 -20.644733 1.774410 4.200796 -45.782031 1.632367 4.058104 -43.809479 2.752036 -0.000049 0.000025 0.000003 0.000000 0.000000 10.240754 -0.046071 -2.314138 1.256443 -0.066883 -17.945578 3.744568 5.453191 -68.964222 5.298029 9.647988 -33.747606 0.000001 -0.000001 -0.000001 9.820256 -0.209767 -4.418458 -7.938256 1.609116 -6.495676 2.210748 4.583968 -51.475219 0.883926 3.096303 -31.858045 0.000000 -0.000000 -0.000001 -6.140202 10.186999 -3.793206 0.113037 -11.910939 -0.225533 -4.348218 64.158918 35.135214 43.726673 125.837315 -55.763836 -5.314738 -3.258249 -9.700236 -9.791027 -0.212903 -4.378342 -17.635712 -10.496856 3.325318 4.994427 -4.645739 94.147908 3.647989 -4.547220 77.470676 0.000002 0.000000 -0.000000 -10.391915 0.105169 -2.349900 -12.155612 -12.624068 9.228220 6.567916 -4.249048 114.232291 3.754926 -4.569724 78.826920 -0.000000 -0.000001 -0.000005 -10.779243 -0.000007 -0.000006 3.764104 -12.080560 1.143659 5.715112 -4.536477 103.133480 3.160412 -4.411121 71.242070 -0.000000 -0.000000 0.000000 -10.577327 -0.175348 2.287342 0.357657 -5.832723 5.175785 0.094411 -0.933786 11.539972 0.778277 -2.579721 33.567265 0.000001 -0.000001 -0.000006 -2.570432 -1.245112 2.319043 13.942825 -4.273828 -5.299954 -3.518824 -2.031572 2.031562 7.113133 -20.767600 -2.619650 -3.945263 -2.277757 2.277735 -3.460503 -24.899373 -18.653805 -0.000002 0.000001 0.000004 9.633795 -3.273307 -0.000001 -26.827217 9.264915 -2.383918 82.597560 -3.956165 -2.406082 -15.695008 0.415166 -7.558139 -0.183299 -12.185708 8.282303 1.607123 -2.870873 -3.673997 -0.000003 -0.000000 0.000000 -9.633804 -3.273295 0.000003 -42.674301 -2.339674 5.565133 63.087657 1.419412 -3.828105 -19.829330 1.650832 -5.349981 -0.183301 -12.185700 8.282302 -1.109038 0.905029 0.980657 -0.000000 0.000001 -0.000000 
0.562464 81.563385 -2.318225 0.268048 -34.561942 3.159802 0.000010 9.226309 1.577099 7.654184 -8.103879 0.520547 0.000001 16.253983 -0.165599 9.844251 5.183147 4.248459 0.000003 13.639596 -1.292307 9.104815 5.860123 4.484805 -0.000003 13.877402 -4.354195 -3.312011 -0.300220 0.473635 -0.000004 4.339981 0.926906 0.000001 0.000000 0.000000 -0.000008 4.026618 0.858493 -0.924378 17.976851 -15.923160 0.000002 21.748795 0.000000 0.000001 0.000000 -0.000001 3.005702 7.261780 7.955603 0.000001 0.000000 -0.000001 -3.005699 7.261780 7.955602 0.000001 0.000000 -0.000001 0.000001 2.030258 2.456203 0.000001 0.000000 -0.000001 6.144189 10.186979 -3.793196 -1.612405 -28.367261 -5.713630 -45.424795 4.993121 -52.731304 -85.032003 23.041980 -92.586199 -29.646600 -6.551555 10.606655 2.421024 -1.395551 2.392363 0.699326 9.503615 -2.418282 3.496512 -2.018665 2.018716 5.975147 12.647545 1.348418 4.011410 -2.315983 2.315988 -23.873535 -17.664339 1.604719 2.095762 -1.210021 1.209995 0.000004 0.000000 0.000004 10.514773 -0.231376 2.264853 9.479737 -1.289619 -20.785563 0.709572 2.796654 -28.467066 0.714074 2.804992 -28.559715 2.334337 0.000016 0.000011 0.000003 -0.000001 -0.000001 10.490764 -0.000021 0.000004 10.058211 -1.800422 -20.644733 1.774408 4.200796 -45.782031 1.632372 4.058104 -43.809479 2.752042 -0.000048 0.000019 -0.000001 0.000002 0.000001 10.240750 -0.046055 -2.314148 1.256445 -0.066883 -17.945579 3.744567 5.453186 -68.964229 5.298030 9.647987 -33.747610 0.000003 -0.000001 0.000001 9.820249 -0.209752 -4.418467 -7.938255 1.609117 -6.495676 2.210747 4.583967 -51.475219 0.883927 3.096303 -31.858051 0.000001 -0.000001 -0.000001 -6.140204 10.186988 -3.793198 0.362631 -12.866369 -0.163914 -3.935298 63.741798 34.451379 42.277723 125.172519 -54.386095 -6.665356 -2.545522 -10.590161 -9.791027 -0.212902 -4.378328 -17.635711 -10.496856 3.325318 4.994425 -4.645739 94.147908 3.647988 -4.547218 77.470676 0.000003 -0.000000 0.000001 -10.391922 0.105184 -2.349886 -12.155611 -12.624065 9.228220 6.567919 -4.249049 114.232291 3.754925 -4.569724 78.826920 -0.000001 0.000000 -0.000002 -10.779235 -0.000008 0.000005 3.764103 -12.080558 1.143659 5.715113 -4.536477 103.133480 3.160410 -4.411119 71.242076 0.000001 -0.000000 -0.000000 -10.577325 -0.175348 2.287346 0.357656 -5.832721 5.175785 0.094411 -0.933785 11.539970 0.778278 -2.579723 33.567258 -0.000000 -0.000001 -0.000004 -2.570431 -1.245109 2.319057 13.942824 -4.273821 -5.299953 -3.518810 -2.031556 2.031555 7.113131 -20.767607 -2.619653 -3.945259 -2.277752 2.277755 -3.460505 -24.899369 -18.653802 -0.000001 -0.000003 0.000002 9.633794 -3.273307 -0.000003 -17.456422 9.109859 -7.993143 77.894134 -5.591014 -3.147883 -12.666634 1.859013 -9.594315 -0.183298 -12.185707 8.282301 0.404080 -5.545858 -5.998315 -0.000001 0.000002 0.000002 -9.633804 -3.273294 0.000001 -46.865746 -3.483114 7.912219 61.111472 0.784146 -3.874488 -13.613802 -0.797083 -7.370262 -0.183301 -12.185701 8.282296 -1.107538 0.905012 0.980540 -0.000000 -0.000000 -0.000000 
0.986919 80.458817 -3.098058 0.256157 -32.475880 3.389243 0.000010 9.226295 1.577101 7.347538 -8.590830 -0.174788 -0.000000 16.254005 -0.165603 9.786315 5.163250 4.320774 0.000004 13.639593 -1.292298 9.042701 5.856694 4.545219 0.000002 13.877397 -4.354204 -2.954873 -0.644235 0.463302 0.000005 4.339996 0.926898 -0.000002 0.000001 -0.000003 0.000001 4.026589 0.858500 -1.623038 16.761317 -15.261264 -0.000003 21.748795 0.000002 0.000001 -0.000001 -0.000000 3.005698 7.261780 7.955602 0.000001 -0.000001 -0.000000 -3.005702 7.261780 7.955603 0.000001 -0.000001 -0.000000 -0.000002 2.030258 2.456202 0.000001 -0.000001 -0.000000 6.144199 10.186999 -3.793200 -0.911854 -29.742824 -5.597008 -46.241197 3.126447 -51.357801 -85.799129 21.599237 -91.895558 -31.684220 -6.902575 10.795917 2.421024 -1.395561 2.392359 0.699330 9.503618 -2.418282 3.496506 -2.018689 2.018716 5.975146 12.647543 1.348417 4.011408 -2.315974 2.315969 -23.873538 -17.664343 1.604720 2.095789 -1.210005 1.209975 0.000003 -0.000002 0.000002 10.514762 -0.231393 2.264853 9.479740 -1.289616 -20.785565 0.709570 2.796649 -28.467067 0.714077 2.804991 -28.559715 2.334346 0.000016 0.000001 0.000003 0.000000 0.000002 10.490760 -0.000019 0.000008 10.058214 -1.800424 -20.644732 1.774407 4.200799 -45.782034 1.632367 4.058105 -43.809482 2.752040 -0.000040 0.000022 -0.000002 0.000000 0.000005 10.240765 -0.046041 -2.314144 1.256447 -0.066879 -17.945581 3.744568 5.453188 -68.964229 5.298036 9.647987 -33.747610 0.000001 0.000001 -0.000001 9.820258 -0.209749 -4.418469 -7.938252 1.609119 -6.495673 2.210746 4.583970 -51.475212 0.883930 3.096301 -31.858048 -0.000003 0.000000 -0.000000 -6.140199 10.186984 -3.793203 0.545829 -13.640964 -0.116390 -3.298252 63.579519 34.028651 43.506420 127.482421 -55.573315 -4.268837 -2.355232 -11.374696 -9.791033 -0.212904 -4.378338 -17.635711 -10.496858 3.325316 4.994427 -4.645740 94.147908 3.647990 -4.547219 77.470676 -0.000002 0.000001 0.000000 -10.391923 0.105183 -2.349896 -12.155613 -12.624069 9.228217 6.567915 -4.249048 114.232291 3.754924 -4.569725 78.826920 -0.000001 -0.000001 0.000003 -10.779234 0.000009 -0.000004 3.764103 -12.080559 1.143658 5.715113 -4.536477 103.133480 3.160412 -4.411120 71.242070 -0.000001 -0.000001 -0.000000 -10.577325 -0.175349 2.287351 0.357656 -5.832723 5.175784 0.094411 -0.933786 11.539972 0.778278 -2.579722 33.567265 -0.000000 0.000001 0.000006 -2.570427 -1.245125 2.319044 13.942826 -4.273820 -5.299955 -3.518799 -2.031559 2.031564 7.113128 -20.767600 -2.619654 -3.945267 -2.277769 2.277743 -3.460503 -24.899373 -18.653805 -0.000001 0.000002 0.000002 9.633800 -3.273296 -0.000002 -7.254662 8.188425 -12.718400 69.705789 -8.229425 -4.030434 -7.443134 3.416845 -13.025966 -0.183298 -12.185707 8.282301 -1.184943 -8.999059 -5.897990 -0.000000 -0.000003 0.000001 -9.633804 -3.273278 -0.000002 -50.044407 -4.786280 9.284910 57.459055 0.122508 -3.910708 -6.932794 -2.437021 -8.994522 -0.183298 -12.185699 8.282301 -1.107751 0.905057 0.980555 0.000000 -0.000004 -0.000000 
